<svg width="20" height="20" viewBox="0 0 20 20" fill="none" xmlns="http://www.w3.org/2000/svg">
<g id="clip-file_16769134 1">
<path id="Vector" d="M17.7639 15.7291C17.7639 17.6933 16.1656 19.2916 14.2014 19.2916H5.79861C3.83437 19.2916 2.23611 17.6933 2.23611 15.7291V4.27075C2.23611 2.30651 3.83437 0.708252 5.79861 0.708252H8.09028C8.37015 0.708252 8.59723 0.935327 8.59723 1.2152C8.59723 1.49507 8.37015 1.72214 8.09028 1.72214H5.79861C4.39334 1.72214 3.25 2.86548 3.25 4.27075V15.7291C3.25 17.1344 4.39334 18.2777 5.79861 18.2777H14.2014C15.6067 18.2777 16.75 17.1344 16.75 15.7291V4.27075C16.75 3.36366 16.2613 2.51726 15.4757 2.06289L17.7639 15.7291ZM17.7639 15.7291V4.27075M17.7639 15.7291V4.27075M17.7639 4.27075C17.7639 3.00253 17.0826 1.82091 15.9838 1.18587C15.74 1.04292 15.4298 1.12854 15.2909 1.37046M17.7639 4.27075L15.2909 1.37046M15.2909 1.37046C15.1502 1.61289 15.2335 1.92297 15.4756 2.06285L15.2909 1.37046ZM5.79861 15.2221C5.51875 15.2221 5.29167 15.4492 5.29167 15.7291C5.29167 16.009 5.51875 16.236 5.79861 16.236H14.2014C14.4813 16.236 14.7083 16.009 14.7083 15.7291C14.7083 15.4492 14.4813 15.2221 14.2014 15.2221H5.79861ZM5.79861 12.9305C5.51875 12.9305 5.29167 13.1575 5.29167 13.4374C5.29167 13.7173 5.51875 13.9444 5.79861 13.9444H14.2014C14.4813 13.9444 14.7083 13.7173 14.7083 13.4374C14.7083 13.1575 14.4813 12.9305 14.2014 12.9305H5.79861ZM9.61806 9.36103C9.89793 9.36103 10.125 9.13395 10.125 8.85408V3.50686C10.125 2.52326 10.9261 1.72214 11.9097 1.72214C12.8933 1.72214 13.6944 2.52326 13.6944 3.50686V9.99992C13.6944 10.3518 13.4074 10.6388 13.0556 10.6388C12.7037 10.6388 12.4167 10.3518 12.4167 9.99992V3.50686C12.4167 3.22699 12.1896 2.99992 11.9097 2.99992C11.6299 2.99992 11.4028 3.22699 11.4028 3.50686V9.99992C11.4028 10.9115 12.144 11.6527 13.0556 11.6527C13.9672 11.6527 14.7083 10.9115 14.7083 9.99992V3.50686C14.7083 1.96352 13.4531 0.708252 11.9097 0.708252C10.3664 0.708252 9.11111 1.96352 9.11111 3.50686V8.85408C9.11111 9.13395 9.33819 9.36103 9.61806 9.36103ZM5.79861 11.6527H9.61806C9.89793 11.6527 10.125 11.4256 10.125 11.1458C10.125 10.8659 9.89793 10.6388 9.61806 10.6388H5.79861C5.51875 10.6388 5.29167 10.8659 5.29167 11.1458C5.29167 11.4256 5.51875 11.6527 5.79861 11.6527Z" fill="#404040" stroke="#404040" stroke-width="0.25"/>
</g>
</svg>
