<svg width="24" height="24" viewBox="0 0 24 24" fill="none" xmlns="http://www.w3.org/2000/svg">
<g id="more_vert">
<mask id="mask0_510_12275" style="mask-type:alpha" maskUnits="userSpaceOnUse" x="0" y="0" width="24" height="24">
<rect id="Bounding box" width="24" height="24" fill="#D9D9D9"/>
</mask>
<g mask="url(#mask0_510_12275)">
<path id="more_vert_2" d="M12.003 20.2751C11.4272 20.2751 10.9344 20.0705 10.5248 19.6613C10.1151 19.252 9.91028 18.76 9.91028 18.1853C9.91028 17.609 10.1149 17.1157 10.5243 16.7053C10.9334 16.295 11.4254 16.0898 12 16.0898C12.5779 16.0898 13.0706 16.2948 13.4783 16.7046C13.8859 17.1146 14.0898 17.6073 14.0898 18.1828C14.0898 18.7585 13.8859 19.2511 13.4783 19.6606C13.0706 20.0703 12.5789 20.2751 12.003 20.2751ZM12.003 14.0898C11.4272 14.0898 10.9344 13.8852 10.5248 13.4758C10.1151 13.0667 9.91028 12.5748 9.91028 12.0001C9.91028 11.4223 10.1149 10.9295 10.5243 10.5218C10.9334 10.1142 11.4254 9.91035 12 9.91035C12.5779 9.91035 13.0706 10.1142 13.4783 10.5218C13.8859 10.9295 14.0898 11.4213 14.0898 11.9971C14.0898 12.5729 13.8859 13.0657 13.4783 13.4753C13.0706 13.885 12.5789 14.0898 12.003 14.0898ZM12.003 7.91035C11.4272 7.91035 10.9344 7.70502 10.5248 7.29435C10.1151 6.88368 9.91028 6.38993 9.91028 5.8131C9.91028 5.23627 10.1149 4.7441 10.5243 4.3366C10.9334 3.92893 11.4254 3.7251 12 3.7251C12.5779 3.7251 13.0706 3.92893 13.4783 4.3366C13.8859 4.7441 14.0898 5.23627 14.0898 5.8131C14.0898 6.38993 13.8859 6.88368 13.4783 7.29435C13.0706 7.70502 12.5789 7.91035 12.003 7.91035Z" fill="#2D446E"/>
</g>
</g>
</svg>
