<svg width="16" height="16" viewBox="0 0 16 16" fill="none" xmlns="http://www.w3.org/2000/svg">
<g id="TY Icon" clip-path="url(#clip0_510_8413)">
<g id="supervisor_account">
<mask id="mask0_510_8413" style="mask-type:alpha" maskUnits="userSpaceOnUse" x="0" y="0" width="16" height="16">
<rect id="Bounding box" width="16" height="16" fill="#D9D9D9"/>
</mask>
<g mask="url(#mask0_510_8413)">
<path id="supervisor_account_2" d="M11.2944 9.53826C10.8791 9.53826 10.5253 9.3921 10.2329 9.09976C9.94059 8.80743 9.79442 8.4536 9.79442 8.03826C9.79442 7.62282 9.94059 7.26893 10.2329 6.9766C10.5253 6.68437 10.8791 6.53826 11.2944 6.53826C11.7099 6.53826 12.0637 6.68437 12.3559 6.9766C12.6483 7.26893 12.7944 7.62282 12.7944 8.03826C12.7944 8.4536 12.6483 8.80743 12.3559 9.09976C12.0637 9.3921 11.7099 9.53826 11.2944 9.53826ZM8.12775 12.8716V12.1049C8.12775 11.8682 8.18831 11.6508 8.30942 11.4528C8.43053 11.2548 8.60248 11.1123 8.82525 11.0254C9.21303 10.863 9.61425 10.7412 10.0289 10.6599C10.4436 10.5788 10.8654 10.5383 11.2944 10.5383C11.7149 10.5383 12.1326 10.5788 12.5476 10.6599C12.9626 10.7412 13.368 10.863 13.7638 11.0254C13.9865 11.1123 14.1584 11.2548 14.2794 11.4528C14.4005 11.6508 14.4611 11.8682 14.4611 12.1049V12.8716H8.12775ZM6.53809 7.7946C5.89642 7.7946 5.34709 7.56615 4.89009 7.10926C4.4332 6.65226 4.20475 6.10293 4.20475 5.46126C4.20475 4.8196 4.4332 4.27032 4.89009 3.81343C5.34709 3.35643 5.89642 3.12793 6.53809 3.12793C7.17975 3.12793 7.72903 3.35643 8.18592 3.81343C8.64292 4.27032 8.87142 4.8196 8.87142 5.46126C8.87142 6.10293 8.64292 6.65226 8.18592 7.10926C7.72903 7.56615 7.17975 7.7946 6.53809 7.7946ZM1.53809 12.8716V11.3894C1.53809 11.0564 1.62503 10.7503 1.79892 10.4711C1.97292 10.1919 2.21159 9.98176 2.51492 9.84076C3.14314 9.52454 3.7952 9.28393 4.47109 9.11893C5.14698 8.95404 5.83597 8.8716 6.53809 8.8716C6.86709 8.8716 7.19614 8.89532 7.52525 8.94276C7.85425 8.99021 8.18331 9.04765 8.51242 9.1151C8.37053 9.2591 8.22864 9.40315 8.08675 9.54726L7.66109 9.97926C7.47398 9.93437 7.28681 9.90521 7.09959 9.89176C6.91236 9.87832 6.7252 9.8716 6.53809 9.8716C5.91498 9.8716 5.30259 9.94293 4.70092 10.0856C4.09914 10.2284 3.52347 10.4442 2.97392 10.7331C2.8457 10.8014 2.74097 10.8909 2.65975 11.0016C2.57864 11.1124 2.53809 11.2417 2.53809 11.3894V11.8716H6.53809V12.8716H1.53809ZM6.53809 6.7946C6.90475 6.7946 7.21864 6.66404 7.47975 6.40293C7.74086 6.14182 7.87142 5.82793 7.87142 5.46126C7.87142 5.0946 7.74086 4.78071 7.47975 4.5196C7.21864 4.25849 6.90475 4.12793 6.53809 4.12793C6.17142 4.12793 5.85753 4.25849 5.59642 4.5196C5.33531 4.78071 5.20475 5.0946 5.20475 5.46126C5.20475 5.82793 5.33531 6.14182 5.59642 6.40293C5.85753 6.66404 6.17142 6.7946 6.53809 6.7946Z" fill="#404040"/>
</g>
</g>
</g>
<defs>
<clipPath id="clip0_510_8413">
<rect width="16" height="16" fill="white"/>
</clipPath>
</defs>
</svg>
