<svg width="20" height="20" viewBox="0 0 20 20" fill="none" xmlns="http://www.w3.org/2000/svg">
<path d="M10.6695 1.96533H9.33018C9.21113 1.96533 9.15161 2.02486 9.15161 2.1439V9.15283H2.50035C2.3813 9.15283 2.32178 9.21236 2.32178 9.3314V10.6707C2.32178 10.7897 2.3813 10.8493 2.50035 10.8493H9.15161V17.8582C9.15161 17.9772 9.21113 18.0368 9.33018 18.0368H10.6695C10.7885 18.0368 10.848 17.9772 10.848 17.8582V10.8493H17.5003C17.6194 10.8493 17.6789 10.7897 17.6789 10.6707V9.3314C17.6789 9.21236 17.6194 9.15283 17.5003 9.15283H10.848V2.1439C10.848 2.02486 10.7885 1.96533 10.6695 1.96533Z" fill="#E6E6E6"/>
</svg>
