<svg width="16" height="16" viewBox="0 0 16 16" fill="none" xmlns="http://www.w3.org/2000/svg">
<g id="TY Icon" clip-path="url(#clip0_510_8421)">
<g id="note_alt">
<mask id="mask0_510_8421" style="mask-type:alpha" maskUnits="userSpaceOnUse" x="0" y="0" width="16" height="16">
<rect id="Bounding box" width="16" height="16" fill="#D9D9D9"/>
</mask>
<g mask="url(#mask0_510_8421)">
<path id="note_alt_2" d="M4.92284 11.0768H5.96384L9.93817 7.13583L8.86384 6.0615L4.92284 10.0025V11.0768ZM10.3535 6.7205L10.9765 6.07683C11.0432 6.01017 11.0765 5.93239 11.0765 5.8435C11.0765 5.75461 11.0432 5.67683 10.9765 5.61017L10.3895 5.02317C10.3228 4.9565 10.2451 4.92317 10.1562 4.92317C10.0673 4.92317 9.98951 4.9565 9.92284 5.02317L9.27917 5.64617L10.3535 6.7205ZM3.53817 13.6667C3.20573 13.6667 2.92173 13.5489 2.68617 13.3135C2.45073 13.0779 2.33301 12.7939 2.33301 12.4615V3.5385C2.33301 3.20606 2.45073 2.92206 2.68617 2.6865C2.92173 2.45106 3.20573 2.33333 3.53817 2.33333H6.50484C6.54673 1.96322 6.70829 1.6485 6.98951 1.38917C7.27062 1.12972 7.60734 1 7.99967 1C8.39623 1 8.73512 1.12972 9.01634 1.38917C9.29756 1.6485 9.45695 1.96322 9.49451 2.33333H12.4612C12.7936 2.33333 13.0776 2.45106 13.3132 2.6865C13.5486 2.92206 13.6663 3.20606 13.6663 3.5385V12.4615C13.6663 12.7939 13.5486 13.0779 13.3132 13.3135C13.0776 13.5489 12.7936 13.6667 12.4612 13.6667H3.53817ZM3.53817 12.6667H12.4612C12.5125 12.6667 12.5595 12.6453 12.6022 12.6025C12.645 12.5598 12.6663 12.5128 12.6663 12.4615V3.5385C12.6663 3.48717 12.645 3.44017 12.6022 3.3975C12.5595 3.35472 12.5125 3.33333 12.4612 3.33333H3.53817C3.48684 3.33333 3.43984 3.35472 3.39717 3.3975C3.3544 3.44017 3.33301 3.48717 3.33301 3.5385V12.4615C3.33301 12.5128 3.3544 12.5598 3.39717 12.6025C3.43984 12.6453 3.48684 12.6667 3.53817 12.6667ZM7.99967 2.8975C8.14412 2.8975 8.26356 2.85028 8.35801 2.75583C8.45245 2.66139 8.49967 2.54194 8.49967 2.3975C8.49967 2.25305 8.45245 2.13361 8.35801 2.03917C8.26356 1.94472 8.14412 1.8975 7.99967 1.8975C7.85523 1.8975 7.73579 1.94472 7.64134 2.03917C7.5469 2.13361 7.49967 2.25305 7.49967 2.3975C7.49967 2.54194 7.5469 2.66139 7.64134 2.75583C7.73579 2.85028 7.85523 2.8975 7.99967 2.8975Z" fill="#404040"/>
</g>
</g>
</g>
<defs>
<clipPath id="clip0_510_8421">
<rect width="16" height="16" fill="white"/>
</clipPath>
</defs>
</svg>
